<mxfile host="app.diagrams.net" agent="Mozilla/5.0 (Windows NT 10.0; Win64; x64) AppleWebKit/537.36 (KHTML, like Gecko) Chrome/131.0.0.0 Safari/537.36" version="25.0.3">
  <diagram id="C5RBs43oDa-KdzZeNtuy" name="Page-1">
    <mxGraphModel dx="875" dy="464" grid="1" gridSize="10" guides="1" tooltips="1" connect="1" arrows="1" fold="1" page="1" pageScale="1" pageWidth="827" pageHeight="1169" math="0" shadow="0">
      <root>
        <mxCell id="WIyWlLk6GJQsqaUBKTNV-0" />
        <mxCell id="WIyWlLk6GJQsqaUBKTNV-1" parent="WIyWlLk6GJQsqaUBKTNV-0" />
        <mxCell id="7wYHVPX7HV3VTu1Dy0Ke-0" value="company bot creation&lt;div&gt;&lt;br&gt;&lt;/div&gt;" style="text;html=1;align=center;verticalAlign=middle;resizable=0;points=[];autosize=1;strokeColor=none;fillColor=none;strokeWidth=4;" vertex="1" parent="WIyWlLk6GJQsqaUBKTNV-1">
          <mxGeometry x="330" y="10" width="140" height="40" as="geometry" />
        </mxCell>
        <mxCell id="7wYHVPX7HV3VTu1Dy0Ke-2" value="company" style="shape=step;perimeter=stepPerimeter;whiteSpace=wrap;html=1;fixedSize=1;" vertex="1" parent="WIyWlLk6GJQsqaUBKTNV-1">
          <mxGeometry x="70" y="70" width="120" height="80" as="geometry" />
        </mxCell>
        <mxCell id="7wYHVPX7HV3VTu1Dy0Ke-6" value="US" style="ellipse;whiteSpace=wrap;html=1;aspect=fixed;" vertex="1" parent="WIyWlLk6GJQsqaUBKTNV-1">
          <mxGeometry x="670" y="70" width="80" height="80" as="geometry" />
        </mxCell>
        <mxCell id="7wYHVPX7HV3VTu1Dy0Ke-7" value="" style="endArrow=classic;html=1;rounded=0;exitX=1;exitY=0.5;exitDx=0;exitDy=0;" edge="1" parent="WIyWlLk6GJQsqaUBKTNV-1" source="7wYHVPX7HV3VTu1Dy0Ke-2">
          <mxGeometry width="50" height="50" relative="1" as="geometry">
            <mxPoint x="440" y="140" as="sourcePoint" />
            <mxPoint x="660" y="120" as="targetPoint" />
            <Array as="points" />
          </mxGeometry>
        </mxCell>
        <mxCell id="7wYHVPX7HV3VTu1Dy0Ke-8" value="they want a bot" style="text;html=1;align=center;verticalAlign=middle;resizable=0;points=[];autosize=1;strokeColor=none;fillColor=none;" vertex="1" parent="WIyWlLk6GJQsqaUBKTNV-1">
          <mxGeometry x="350" y="80" width="100" height="30" as="geometry" />
        </mxCell>
        <mxCell id="7wYHVPX7HV3VTu1Dy0Ke-9" value="via gmail" style="text;html=1;align=center;verticalAlign=middle;resizable=0;points=[];autosize=1;strokeColor=none;fillColor=none;" vertex="1" parent="WIyWlLk6GJQsqaUBKTNV-1">
          <mxGeometry x="675" y="28" width="70" height="30" as="geometry" />
        </mxCell>
        <mxCell id="7wYHVPX7HV3VTu1Dy0Ke-10" value="" style="endArrow=classic;html=1;rounded=0;exitX=0;exitY=1;exitDx=0;exitDy=0;" edge="1" parent="WIyWlLk6GJQsqaUBKTNV-1" source="7wYHVPX7HV3VTu1Dy0Ke-6">
          <mxGeometry width="50" height="50" relative="1" as="geometry">
            <mxPoint x="360" y="168" as="sourcePoint" />
            <mxPoint x="184.11764705882365" y="130.00470588235294" as="targetPoint" />
            <Array as="points">
              <mxPoint x="440" y="140" />
            </Array>
          </mxGeometry>
        </mxCell>
        <mxCell id="7wYHVPX7HV3VTu1Dy0Ke-11" value="It would take 1 week send us all info and money after bot is craeted" style="text;html=1;align=center;verticalAlign=middle;resizable=0;points=[];autosize=1;strokeColor=none;fillColor=none;" vertex="1" parent="WIyWlLk6GJQsqaUBKTNV-1">
          <mxGeometry x="210" y="150" width="380" height="30" as="geometry" />
        </mxCell>
        <mxCell id="7wYHVPX7HV3VTu1Dy0Ke-12" value="" style="endArrow=none;html=1;rounded=0;exitX=-0.017;exitY=0.775;exitDx=0;exitDy=0;exitPerimeter=0;" edge="1" parent="WIyWlLk6GJQsqaUBKTNV-1" source="7wYHVPX7HV3VTu1Dy0Ke-0">
          <mxGeometry width="50" height="50" relative="1" as="geometry">
            <mxPoint x="360" y="42.58" as="sourcePoint" />
            <mxPoint x="480" y="41" as="targetPoint" />
          </mxGeometry>
        </mxCell>
        <mxCell id="7wYHVPX7HV3VTu1Dy0Ke-13" value="" style="endArrow=none;html=1;rounded=0;exitX=-0.017;exitY=0.775;exitDx=0;exitDy=0;exitPerimeter=0;" edge="1" parent="WIyWlLk6GJQsqaUBKTNV-1">
          <mxGeometry width="50" height="50" relative="1" as="geometry">
            <mxPoint x="250" y="400" as="sourcePoint" />
            <mxPoint x="510" y="400" as="targetPoint" />
          </mxGeometry>
        </mxCell>
        <mxCell id="7wYHVPX7HV3VTu1Dy0Ke-14" value="Next we will create the bot and put it in an api" style="text;html=1;align=center;verticalAlign=middle;resizable=0;points=[];autosize=1;strokeColor=none;fillColor=none;" vertex="1" parent="WIyWlLk6GJQsqaUBKTNV-1">
          <mxGeometry x="250" y="370" width="260" height="30" as="geometry" />
        </mxCell>
        <mxCell id="7wYHVPX7HV3VTu1Dy0Ke-28" style="edgeStyle=orthogonalEdgeStyle;rounded=0;orthogonalLoop=1;jettySize=auto;html=1;" edge="1" parent="WIyWlLk6GJQsqaUBKTNV-1" source="7wYHVPX7HV3VTu1Dy0Ke-15">
          <mxGeometry relative="1" as="geometry">
            <mxPoint x="290" y="510" as="targetPoint" />
          </mxGeometry>
        </mxCell>
        <mxCell id="7wYHVPX7HV3VTu1Dy0Ke-15" value="server consisting of all bots api" style="shape=cylinder3;whiteSpace=wrap;html=1;boundedLbl=1;backgroundOutline=1;size=15;" vertex="1" parent="WIyWlLk6GJQsqaUBKTNV-1">
          <mxGeometry x="414" y="560" width="80" height="110" as="geometry" />
        </mxCell>
        <mxCell id="7wYHVPX7HV3VTu1Dy0Ke-17" value="Actor" style="shape=umlActor;verticalLabelPosition=bottom;verticalAlign=top;html=1;outlineConnect=0;" vertex="1" parent="WIyWlLk6GJQsqaUBKTNV-1">
          <mxGeometry x="20" y="518" width="30" height="60" as="geometry" />
        </mxCell>
        <mxCell id="7wYHVPX7HV3VTu1Dy0Ke-18" value="user" style="text;html=1;align=center;verticalAlign=middle;resizable=0;points=[];autosize=1;strokeColor=none;fillColor=none;" vertex="1" parent="WIyWlLk6GJQsqaUBKTNV-1">
          <mxGeometry x="10" y="480" width="50" height="30" as="geometry" />
        </mxCell>
        <mxCell id="7wYHVPX7HV3VTu1Dy0Ke-19" value="" style="endArrow=classic;html=1;rounded=0;" edge="1" parent="WIyWlLk6GJQsqaUBKTNV-1">
          <mxGeometry width="50" height="50" relative="1" as="geometry">
            <mxPoint x="60" y="540" as="sourcePoint" />
            <mxPoint x="190" y="500" as="targetPoint" />
          </mxGeometry>
        </mxCell>
        <mxCell id="7wYHVPX7HV3VTu1Dy0Ke-20" value="company frontend" style="rounded=1;whiteSpace=wrap;html=1;" vertex="1" parent="WIyWlLk6GJQsqaUBKTNV-1">
          <mxGeometry x="190" y="440" width="120" height="60" as="geometry" />
        </mxCell>
        <mxCell id="7wYHVPX7HV3VTu1Dy0Ke-21" value="How can I return this" style="text;html=1;align=center;verticalAlign=middle;resizable=0;points=[];autosize=1;strokeColor=none;fillColor=none;rotation=-15;" vertex="1" parent="WIyWlLk6GJQsqaUBKTNV-1">
          <mxGeometry x="50" y="488" width="130" height="30" as="geometry" />
        </mxCell>
        <mxCell id="7wYHVPX7HV3VTu1Dy0Ke-22" value="" style="endArrow=classic;html=1;rounded=0;entryX=0.145;entryY=0;entryDx=0;entryDy=4.35;entryPerimeter=0;" edge="1" parent="WIyWlLk6GJQsqaUBKTNV-1" target="7wYHVPX7HV3VTu1Dy0Ke-15">
          <mxGeometry width="50" height="50" relative="1" as="geometry">
            <mxPoint x="310" y="488" as="sourcePoint" />
            <mxPoint x="360" y="438" as="targetPoint" />
          </mxGeometry>
        </mxCell>
        <mxCell id="7wYHVPX7HV3VTu1Dy0Ke-24" value="1. The server will see the request url&amp;nbsp;&lt;div&gt;&lt;span style=&quot;background-color: initial;&quot;&gt;2. point it to the right bot&lt;/span&gt;&lt;div&gt;&lt;div&gt;&amp;nbsp;3. answer it&lt;br&gt;4. by websocket connection&amp;nbsp;&lt;/div&gt;&lt;/div&gt;&lt;/div&gt;" style="text;html=1;align=center;verticalAlign=middle;resizable=0;points=[];autosize=1;strokeColor=none;fillColor=none;imageWidth=50;" vertex="1" parent="WIyWlLk6GJQsqaUBKTNV-1">
          <mxGeometry x="500" y="570" width="220" height="70" as="geometry" />
        </mxCell>
        <mxCell id="7wYHVPX7HV3VTu1Dy0Ke-23" value="How can I return this" style="text;html=1;align=center;verticalAlign=middle;resizable=0;points=[];autosize=1;strokeColor=none;fillColor=none;rotation=30;" vertex="1" parent="WIyWlLk6GJQsqaUBKTNV-1">
          <mxGeometry x="309.99746438532725" y="488.0021253259999" width="130" height="30" as="geometry" />
        </mxCell>
        <mxCell id="7wYHVPX7HV3VTu1Dy0Ke-29" value="answer" style="text;html=1;align=center;verticalAlign=middle;resizable=0;points=[];autosize=1;strokeColor=none;fillColor=none;" vertex="1" parent="WIyWlLk6GJQsqaUBKTNV-1">
          <mxGeometry x="310" y="578" width="60" height="30" as="geometry" />
        </mxCell>
        <mxCell id="7wYHVPX7HV3VTu1Dy0Ke-30" style="edgeStyle=orthogonalEdgeStyle;rounded=0;orthogonalLoop=1;jettySize=auto;html=1;entryX=0.6;entryY=0.667;entryDx=0;entryDy=0;entryPerimeter=0;" edge="1" parent="WIyWlLk6GJQsqaUBKTNV-1">
          <mxGeometry relative="1" as="geometry">
            <mxPoint x="200" y="454.99" as="sourcePoint" />
            <mxPoint x="50" y="485" as="targetPoint" />
          </mxGeometry>
        </mxCell>
        <mxCell id="7wYHVPX7HV3VTu1Dy0Ke-31" value="answer" style="text;html=1;align=center;verticalAlign=middle;resizable=0;points=[];autosize=1;strokeColor=none;fillColor=none;" vertex="1" parent="WIyWlLk6GJQsqaUBKTNV-1">
          <mxGeometry x="70" y="398" width="60" height="30" as="geometry" />
        </mxCell>
        <mxCell id="7wYHVPX7HV3VTu1Dy0Ke-32" value="Fine tuning the bot for use" style="text;html=1;align=center;verticalAlign=middle;resizable=0;points=[];autosize=1;strokeColor=none;fillColor=none;" vertex="1" parent="WIyWlLk6GJQsqaUBKTNV-1">
          <mxGeometry x="320" y="728" width="160" height="30" as="geometry" />
        </mxCell>
        <mxCell id="7wYHVPX7HV3VTu1Dy0Ke-33" value="" style="endArrow=none;html=1;rounded=0;exitX=-0.017;exitY=0.775;exitDx=0;exitDy=0;exitPerimeter=0;" edge="1" parent="WIyWlLk6GJQsqaUBKTNV-1">
          <mxGeometry width="50" height="50" relative="1" as="geometry">
            <mxPoint x="328" y="760" as="sourcePoint" />
            <mxPoint x="480" y="760" as="targetPoint" />
          </mxGeometry>
        </mxCell>
        <mxCell id="7wYHVPX7HV3VTu1Dy0Ke-34" value="1. What is the name of the company and company work type." style="text;html=1;align=center;verticalAlign=middle;resizable=0;points=[];autosize=1;strokeColor=none;fillColor=none;" vertex="1" parent="WIyWlLk6GJQsqaUBKTNV-1">
          <mxGeometry x="40" y="770" width="350" height="30" as="geometry" />
        </mxCell>
        <mxCell id="7wYHVPX7HV3VTu1Dy0Ke-35" value="2. What type of assistance is needed." style="text;html=1;align=center;verticalAlign=middle;resizable=0;points=[];autosize=1;strokeColor=none;fillColor=none;" vertex="1" parent="WIyWlLk6GJQsqaUBKTNV-1">
          <mxGeometry x="40" y="808" width="220" height="30" as="geometry" />
        </mxCell>
        <mxCell id="7wYHVPX7HV3VTu1Dy0Ke-36" value="3. Send all the info about your company to help the user and assist them." style="text;html=1;align=center;verticalAlign=middle;resizable=0;points=[];autosize=1;strokeColor=none;fillColor=none;" vertex="1" parent="WIyWlLk6GJQsqaUBKTNV-1">
          <mxGeometry x="40" y="848" width="410" height="30" as="geometry" />
        </mxCell>
        <mxCell id="7wYHVPX7HV3VTu1Dy0Ke-37" value="4. Company online links and employees and CEO name." style="text;html=1;align=center;verticalAlign=middle;resizable=0;points=[];autosize=1;strokeColor=none;fillColor=none;" vertex="1" parent="WIyWlLk6GJQsqaUBKTNV-1">
          <mxGeometry x="40" y="890" width="330" height="30" as="geometry" />
        </mxCell>
        <mxCell id="7wYHVPX7HV3VTu1Dy0Ke-38" value="5. what is the time limit in which the bot should be ready." style="text;html=1;align=center;verticalAlign=middle;resizable=0;points=[];autosize=1;strokeColor=none;fillColor=none;" vertex="1" parent="WIyWlLk6GJQsqaUBKTNV-1">
          <mxGeometry x="40" y="930" width="320" height="30" as="geometry" />
        </mxCell>
        <mxCell id="7wYHVPX7HV3VTu1Dy0Ke-39" value="6. Should the bot should also be accessible by our website." style="text;html=1;align=center;verticalAlign=middle;resizable=0;points=[];autosize=1;strokeColor=none;fillColor=none;" vertex="1" parent="WIyWlLk6GJQsqaUBKTNV-1">
          <mxGeometry x="40" y="970" width="340" height="30" as="geometry" />
        </mxCell>
        <mxCell id="7wYHVPX7HV3VTu1Dy0Ke-40" value="7. Which package do you want, how many messages per minute." style="text;html=1;align=center;verticalAlign=middle;resizable=0;points=[];autosize=1;strokeColor=none;fillColor=none;" vertex="1" parent="WIyWlLk6GJQsqaUBKTNV-1">
          <mxGeometry x="40" y="1010" width="370" height="30" as="geometry" />
        </mxCell>
        <mxCell id="7wYHVPX7HV3VTu1Dy0Ke-41" value="8. How many months package do you want." style="text;html=1;align=center;verticalAlign=middle;resizable=0;points=[];autosize=1;strokeColor=none;fillColor=none;" vertex="1" parent="WIyWlLk6GJQsqaUBKTNV-1">
          <mxGeometry x="40" y="1048" width="260" height="30" as="geometry" />
        </mxCell>
      </root>
    </mxGraphModel>
  </diagram>
</mxfile>
